<?xml version="1.0" encoding="UTF-8" standalone="no"?>
<svg
   xmlns:dc="http://purl.org/dc/elements/1.1/"
   xmlns:cc="http://creativecommons.org/ns#"
   xmlns:rdf="http://www.w3.org/1999/02/22-rdf-syntax-ns#"
   xmlns:svg="http://www.w3.org/2000/svg"
   xmlns="http://www.w3.org/2000/svg"
   xmlns:xlink="http://www.w3.org/1999/xlink"
   xmlns:sodipodi="http://sodipodi.sourceforge.net/DTD/sodipodi-0.dtd"
   xmlns:inkscape="http://www.inkscape.org/namespaces/inkscape"
   inkscape:version="1.0 (4035a4fb49, 2020-05-01)"
   inkscape:export-ydpi="75.000008"
   inkscape:export-xdpi="75.000008"
   inkscape:export-filename="/home/timo/Documents/Projects/Flutter/Project_Black_Talon/android/app/src/main/res/drawable/web_hi_res_512.png"
   sodipodi:docname="logo.svg"
   id="svg8"
   version="1.1"
   viewBox="0 0 63.521271 73.315369"
   height="73.315369mm"
   width="63.521271mm">
  <defs
     id="defs2" />
  <sodipodi:namedview
     inkscape:window-maximized="1"
     inkscape:window-y="28"
     inkscape:window-x="0"
     inkscape:window-height="1052"
     inkscape:window-width="1920"
     fit-margin-bottom="0"
     fit-margin-right="0"
     fit-margin-left="0"
     fit-margin-top="0"
     showgrid="false"
     inkscape:document-rotation="0"
     inkscape:current-layer="layer1"
     inkscape:document-units="mm"
     inkscape:cy="224.11694"
     inkscape:cx="124.99997"
     inkscape:zoom="1.9750637"
     inkscape:pageshadow="2"
     inkscape:pageopacity="1"
     borderopacity="1.0"
     bordercolor="#666666"
     pagecolor="#fcfcfc"
     id="base" />
  <metadata
     id="metadata5">
    <rdf:RDF>
      <cc:Work
         rdf:about="">
        <dc:format>image/svg+xml</dc:format>
        <dc:type
           rdf:resource="http://purl.org/dc/dcmitype/StillImage" />
        <dc:title></dc:title>
      </cc:Work>
    </rdf:RDF>
  </metadata>
  <g
     transform="translate(-42.576648,-24.735815)"
     id="layer1"
     inkscape:groupmode="layer"
     inkscape:label="Layer 1">
    <image
       sodipodi:absref="/home/timo/Documents/Projects/Flutter/Project_Black_Talon/android/app/src/main/res/drawable/web_hi_res_512.png"
       xlink:href="../android/app/src/main/res/drawable/web_hi_res_512.png"
       y="3.326194"
       x="6.3500037"
       width="135.46666"
       height="135.46666"
       preserveAspectRatio="none"
       style="image-rendering:optimizeQuality"
       id="image843" />
    <g
       id="g911">
      <path
         sodipodi:nodetypes="ccccccccccsssccsscsccsssssscsccsssssscssssssssssssscsssssscssscsssssscssssssssssssssscssssssssssssssssscssssssssssscsssssscssssscssscssscssssssssssssscsssssssssssssssssssscsssssccsssss"
         id="path915"
         d="M 6.3500037,71.059524 V 3.326194 H 74.083334 141.81666 v 67.73333 67.733326 H 74.083334 6.3500037 Z M 79.507292,93.460652 c 6.907998,-4.370784 12.777459,-10.103188 16.918733,-16.523657 1.619025,-2.510078 4.375725,-8.219823 5.583955,-11.565632 0.5255,-1.455209 1.35247,-4.312709 1.83771,-6.35 1.70905,-7.175471 2.24797,-12.195153 2.24932,-20.951012 l 7.9e-4,-5.869762 -1.91822,0.885298 c -1.05503,0.486913 -2.83595,1.074478 -3.9576,1.3057 -2.631704,0.542507 -7.696083,0.545058 -10.541417,0.0053 C 83.40625,33.206308 78.132109,29.9131 76.354064,26.075374 l -0.620622,-1.339549 -0.790062,1.399877 c -1.00785,1.785958 -2.65058,3.436375 -4.828796,4.851495 -6.874785,4.466344 -18.123688,5.21326 -25.628141,1.701689 -0.925843,-0.433231 -1.729515,-0.787693 -1.785938,-0.787693 -0.05642,0 -0.102586,2.302594 -0.102586,5.11688 0,10.182608 1.22959,18.448392 3.902815,26.236243 4.487257,13.072633 12.806693,23.106281 25.399576,30.633126 l 3.346322,2.000118 1.071997,-0.544021 c 0.589597,-0.299212 2.024496,-1.146683 3.188663,-1.883267 z M 72.459501,91.086619 C 55.795075,81.173597 47.22097,66.774393 45.519199,45.843551 c -0.289042,-3.555061 -0.3757,-9.973609 -0.134657,-9.973609 0.07743,0 0.545433,0.169072 1.04,0.375714 3.355329,1.401948 10.292392,1.734442 15.020237,0.719923 4.996753,-1.072221 9.859866,-3.33186 12.788616,-5.94221 l 1.472276,-1.312219 0.974768,0.917069 c 3.424856,3.22213 8.542945,5.71265 13.542477,6.589924 3.797461,0.666342 10.773244,0.198001 12.766144,-0.8571 0.43261,-0.229033 0.46302,0.05661 0.46302,4.34843 0,21.18503 -7.266556,37.418098 -21.487513,48.001857 -2.86807,2.134523 -5.87018,4.044026 -6.357995,4.044026 -0.188,0 -1.60418,-0.750932 -3.147071,-1.668737 z m 4.820034,-8.021696 c -0.927868,-1.179591 -0.714606,-2.723059 0.679103,-4.914931 0.708602,-1.114415 0.726969,-1.124008 0.911106,-0.475885 0.103359,0.363802 0.199795,1.29036 0.214299,2.059019 0.02662,1.410597 0.445437,2.666857 1.206418,3.618698 0.40935,0.512019 0.421624,0.511017 1.006242,-0.08226 l 0.591839,-0.600607 -0.597035,-0.490707 c -0.453673,-0.372879 -0.637794,-0.880694 -0.766789,-2.114846 -0.14927,-1.428125 -0.09719,-1.722286 0.43149,-2.43737 0.580668,-0.785395 0.586235,-0.844717 0.16265,-1.732987 -0.898652,-1.884492 -0.847532,-3.009577 0.242263,-5.331888 0.973376,-2.07423 0.990957,-2.166586 0.80917,-4.250547 l -0.185825,-2.13025 h 0.779537 c 1.215922,0 1.474406,0.512416 1.100746,2.182106 -0.4322,1.931275 0.01455,4.100104 1.07936,5.23999 l 0.773308,0.827831 0.995979,-0.595431 c 0.547788,-0.327488 1.098875,-0.685226 1.224637,-0.794978 0.125762,-0.109749 -0.20166,-0.896715 -0.727604,-1.748811 -0.860272,-1.393748 -0.956263,-1.735391 -0.956263,-3.403407 0,-1.296275 -0.131606,-2.042035 -0.437411,-2.478635 -0.420979,-0.60103 -0.530691,-0.618926 -2.920307,-0.476361 l -2.482892,0.148132 -0.664075,-1.003487 c -0.365242,-0.551916 -1.14259,-1.388028 -1.727441,-1.858029 -1.499896,-1.205349 -1.067221,-1.318921 0.659154,-0.173019 1.64901,1.094552 2.682996,1.278734 2.413598,0.429932 -0.150146,-0.473064 -0.04685,-0.52955 0.974357,-0.532778 1.865691,-0.0059 2.353294,-0.220017 2.169422,-0.952624 -0.134808,-0.537118 -0.0614,-0.631264 0.492223,-0.631264 0.581689,0 2.278181,-0.463654 2.558036,-0.699117 0.05974,-0.05026 -0.093,-0.314179 -0.339429,-0.586475 -0.426981,-0.47181 -0.407207,-0.511255 0.420548,-0.838949 0.959995,-0.380045 1.794634,-1.010708 1.794634,-1.35605 0,-0.122965 -0.208359,-0.230577 -0.463021,-0.239136 -0.425953,-0.01431 -0.423614,-0.04079 0.02923,-0.330729 2.252078,-1.441937 2.815045,-1.847464 2.815045,-2.027796 0,-0.114152 -0.347544,-0.351507 -0.772319,-0.527455 l -0.772316,-0.319905 1.698358,-1.66525 c 1.582176,-1.551331 2.247381,-2.78893 1.304581,-2.427145 -0.256985,0.09861 -0.107977,-0.355311 0.428926,-1.306652 0.872575,-1.546117 0.873837,-1.920148 0.0049,-1.455111 -0.802923,0.42971 -0.836983,0.383064 -0.66049,-0.904605 0.08976,-0.654843 0.09031,-1.190625 0.0013,-1.190625 -0.08908,0 -0.819539,0.873673 -1.623248,1.941494 -2.407375,3.198487 -7.159964,6.646227 -9.615622,6.975599 -1.951257,0.261718 -3.059597,-0.391808 -2.06474,-1.217467 0.255678,-0.21219 0.572043,-0.223834 1.058334,-0.03895 0.621239,0.236196 0.693642,0.201506 0.693642,-0.332314 0,-0.327822 -0.176882,-0.848575 -0.393073,-1.15723 -0.34988,-0.499525 -0.347504,-0.578675 0.02164,-0.72033 0.228092,-0.08753 0.705689,-0.159139 1.061326,-0.159139 0.635706,0 0.639572,-0.01363 0.229108,-0.807363 -0.229627,-0.44405 -0.58987,-0.873506 -0.800545,-0.954349 -0.691877,-0.265499 -0.401029,-0.837147 0.592815,-1.165143 L 82.91431,44.527275 82.188442,43.902909 C 81.789212,43.559506 80.938669,43.146621 80.29834,42.985384 79.592728,42.807709 78.974241,42.44824 78.728274,42.072844 78.505066,41.732185 77.789283,41.217621 77.137649,40.929373 76.486017,40.641126 75.368272,39.85847 74.653773,39.19014 73.490522,38.102055 73.282122,38.002582 72.660727,38.238836 72.27905,38.38395 71.96677,38.704609 71.96677,38.951415 c 0,0.246803 -0.198903,0.668522 -0.442007,0.937149 -0.415888,0.459549 -0.402154,0.531143 0.232415,1.211458 0.370933,0.397674 0.818356,1.341953 0.994275,2.098399 0.175919,0.756444 0.6017,1.679472 0.946179,2.051172 l 0.626327,0.675817 -1.287571,1.204373 c -0.708165,0.662403 -1.476097,1.601658 -1.706515,2.087229 -0.429112,0.904285 -1.142854,1.38443 -1.509186,1.015249 -0.113035,-0.113911 -0.329464,-0.981017 -0.480959,-1.926903 -0.151495,-0.945885 -0.430956,-2.255572 -0.621027,-2.910416 -0.317392,-1.093496 -0.463408,-1.238525 -1.789904,-1.777809 -1.075714,-0.437328 -1.997408,-0.589259 -3.611515,-0.595313 -1.191958,-0.0045 -2.241285,0.111747 -2.331836,0.25826 -0.09055,0.146515 0.08963,0.62348 0.40041,1.059926 0.528156,0.741727 0.602186,0.767519 1.133935,0.395068 0.657328,-0.46041 2.144162,-0.518623 3.265167,-0.127839 1.128345,0.393343 1.772973,1.732822 1.549882,3.220508 -0.297995,1.987182 -0.488297,2.076683 -1.773955,0.834332 -1.127315,-1.089245 -2.751383,-1.679633 -4.620511,-1.679633 -0.622628,0 -3.790373,1.254143 -3.790373,1.50065 0,0.05801 0.189392,0.394515 0.42087,0.747797 l 0.42087,0.642329 0.752782,-0.556553 c 1.433216,-1.059625 4.698254,-0.888812 5.155057,0.269689 0.09516,0.241338 0.320246,1.434285 0.500187,2.650993 l 0.327162,2.212197 -1.140994,-0.15639 C 61.482365,54.004827 57.468218,51.5995 55.662974,49.545614 55.09839,48.903269 54.111852,47.4387 53.470663,46.291017 c -2.109602,-3.776046 -2.128065,-3.793522 -2.65739,-2.515619 -0.298916,0.721651 -0.155861,1.838106 0.431723,3.369323 0.119393,0.311134 0.0043,0.356913 -0.548637,0.218144 -0.670364,-0.168251 -0.688234,-0.145359 -0.425643,0.545306 0.150754,0.39651 0.744336,1.271061 1.319072,1.943447 0.984816,1.152133 1.015399,1.238348 0.531215,1.497475 -0.499499,0.267322 -0.500478,0.296836 -0.03521,1.063006 0.433994,0.714663 0.439526,0.81702 0.0594,1.099127 -0.37052,0.274981 -0.327054,0.407948 0.374594,1.14595 0.436563,0.459179 1.121087,1.029425 1.521169,1.267214 l 0.727416,0.432339 -0.579252,0.310007 c -0.551889,0.295363 -0.517506,0.340942 0.727792,0.964811 0.718873,0.360143 1.929193,0.85846 2.689601,1.107369 1.125442,0.3684 1.371465,0.555292 1.322916,1.004946 -0.04624,0.428283 0.148402,0.607597 0.866399,0.798152 0.509323,0.135176 1.021255,0.413787 1.137627,0.619141 0.118104,0.208412 0.614907,0.373369 1.124479,0.373369 0.667813,0 0.912894,0.115901 0.912894,0.431713 0,0.443608 0.617376,0.434922 2.804419,-0.03946 0.760381,-0.164931 0.870572,-0.09165 1.514557,1.007226 0.857822,1.463762 3.075639,3.492719 4.302935,3.936516 0.66462,0.240328 0.869847,0.443693 0.745707,0.738941 -0.360453,0.857292 -0.419706,2.900042 -0.111234,3.834725 0.177073,0.536533 1.143386,1.993993 2.147366,3.238799 1.00398,1.244806 1.825416,2.371341 1.825416,2.503411 0,0.132069 -0.183054,0.678238 -0.406789,1.213709 -1.049385,2.511531 -0.639521,5.459172 0.869837,6.255655 0.68898,0.363575 0.739229,0.350121 0.947216,-0.253606 0.164782,-0.478311 0.08218,-0.812302 -0.330729,-1.337228 z m 0.65479,-8.223008 c -0.592126,-0.871395 -0.625083,-1.040144 -0.297116,-1.521355 0.607711,-0.891661 3.668643,-4.023928 3.373056,-3.451661 -0.150331,0.291042 -0.93695,1.179944 -1.748046,1.975337 -0.811096,0.795393 -1.474719,1.571064 -1.474719,1.72371 0,0.152646 0.238355,0.722259 0.52968,1.265809 0.679045,1.266949 0.475464,1.271288 -0.382855,0.0081 z M 76.464584,43.013692 c 0,-0.293981 0.176389,-0.529167 0.396875,-0.529167 0.220485,0 0.396875,0.235186 0.396875,0.529167 0,0.293981 -0.17639,0.529167 -0.396875,0.529167 -0.220486,0 -0.396875,-0.235186 -0.396875,-0.529167 z"
         style="fill:#fcfcfc;stroke-width:0.264583" />
    </g>
    <path
       d="M 262.23633,80.917969 259.25,86.208984 c -3.80962,6.750119 -10.01737,12.987459 -18.25,18.335936 -25.98344,16.88067 -68.49804,19.70372 -96.86133,6.43164 -3.49925,-1.63741 -6.53676,-2.97656 -6.75,-2.97656 -1.04071,0 -0.20557,40.60443 1.12305,54.58984 7.79494,82.05203 42.79862,139.78762 108.75195,179.39063 2.47693,-0.3022 4.93345,-0.49717 7.08594,0.55859 1.14109,0.55969 1.11612,2.51174 0.47851,3.95117 5.6e-4,0.007 -4.7e-4,0.0127 0,0.0195 l 2.02735,1.21093 c 2.8946,-0.17096 5.80959,-0.35284 8.74219,-0.54687 14.22844,-7.47518 34.89407,-22.90834 47.86718,-35.81836 16.67933,-16.59819 27.57234,-31.94196 38.07813,-53.64258 8.19027,-16.91774 12.78597,-29.71704 16.95312,-47.21289 6.45944,-27.11989 8.49622,-46.09254 8.5,-79.18555 l 0.004,-22.18359 -7.25,3.3457 c -3.98751,1.8403 -10.71772,4.05969 -14.95703,4.9336 -9.9466,2.05039 -29.08778,2.06142 -39.8418,0.0215 -23.71394,-4.49846 -43.64897,-16.94638 -50.36914,-31.451171 z m -0.10547,18.804687 3.68555,3.466794 c 12.94433,12.17813 32.28772,21.59057 51.18359,24.90625 14.35261,2.51846 40.71778,0.74755 48.25,-3.24023 1.6351,-0.86564 1.75,0.21449 1.75,16.43555 0,87.54184 -32.74741,152.38975 -97.22461,192.52343 -3.69902,2.30244 -7.30703,4.18555 -8.01758,4.18555 -0.71055,0 -6.06313,-2.83777 -11.89453,-6.30664 C 186.87962,294.22682 154.47291,239.80401 148.04102,160.69531 146.94857,147.25886 146.62022,123 147.53125,123 c 0.29266,0 2.06241,0.63891 3.93164,1.41992 12.68156,5.2987 38.90051,6.55511 56.76953,2.7207 18.88537,-4.05245 37.26469,-12.59309 48.33399,-22.45898 z m -9.95898,31.837894 c -0.47281,0.0261 -0.96169,0.16937 -1.54883,0.39257 -1.44256,0.54847 -2.62305,1.76055 -2.62305,2.69336 0,0.9328 -0.7511,2.52769 -1.66992,3.54297 -1.57186,1.73688 -1.52142,2.00686 0.87695,4.57813 1.40195,1.50302 3.09292,5.07068 3.75781,7.92969 0.66489,2.859 2.2742,6.34905 3.57618,7.7539 l 2.36718,2.55469 -4.86523,4.55078 c -2.67653,2.50357 -5.57835,6.05344 -6.44922,7.88867 -1.62184,3.41777 -4.32052,5.23322 -5.70508,3.83789 -0.42722,-0.43053 -1.24578,-3.7082 -1.81836,-7.2832 -0.57258,-3.575 -1.62732,-8.525 -2.3457,-11 -1.19959,-4.1329 -1.7521,-4.68051 -6.76563,-6.71875 -4.06569,-1.65289 -7.54982,-2.22694 -13.65039,-2.25 -4.50503,-0.0169 -8.47026,0.42086 -8.8125,0.97461 -0.34224,0.55376 0.33909,2.35825 1.51368,4.00781 1.99618,2.80338 2.27539,2.89988 4.28515,1.49219 2.48439,-1.74013 8.10298,-1.9594 12.33985,-0.48242 4.26461,1.48665 6.70255,6.54912 5.85937,12.17187 -1.12628,7.51061 -1.8459,7.84785 -6.70508,3.15235 C 219.52873,167.23082 213.39059,165 206.32617,165 203.97293,165 192,169.74019 192,170.67188 c 0,0.21921 0.71497,1.49093 1.58984,2.82617 l 1.5918,2.42773 2.8457,-2.10351 c 5.41688,-4.00489 17.75593,-3.35906 19.48243,1.01953 0.35967,0.91214 1.21051,5.42095 1.89062,10.01953 l 1.23633,8.36133 -4.3125,-0.5918 c -7.9505,-1.08974 -23.12234,-10.18064 -29.94531,-17.94336 -2.13386,-2.42776 -5.86177,-7.96308 -8.28516,-12.30078 -7.9733,-14.27167 -8.04237,-14.33768 -10.04297,-9.50781 -1.12976,2.7275 -0.58993,6.94709 1.63086,12.73437 0.45125,1.17594 0.0155,1.3487 -2.07422,0.82422 -2.53366,-0.63591 -2.59989,-0.54984 -1.60742,2.06055 0.56978,1.49862 2.81214,4.8044 4.98438,7.3457 3.7221,4.35452 3.83779,4.68078 2.00781,5.66016 -1.88788,1.01035 -1.89131,1.12181 -0.13281,4.01757 1.64024,2.70109 1.66128,3.08807 0.2246,4.1543 -1.40039,1.0393 -1.23588,1.54273 1.41602,4.33203 1.65,1.73548 4.23788,3.89033 5.75,4.78907 l 2.74805,1.63281 -2.18946,1.17187 c -2.08588,1.11634 -1.95468,1.28856 2.75196,3.64649 2.717,1.36117 7.29008,3.24479 10.16406,4.18554 4.25364,1.39238 5.1835,2.09935 5,3.79883 -0.17478,1.61871 0.5617,2.29542 3.27539,3.01563 1.925,0.5109 3.859,1.5637 4.29883,2.33984 0.44638,0.7877 2.32406,1.41211 4.25,1.41211 2.52402,0 3.45117,0.43724 3.45117,1.63086 0,1.67664 2.33362,1.64451 10.59961,-0.14844 2.87388,-0.62336 3.29065,-0.3466 5.72461,3.80664 3.24216,5.53233 11.62312,13.20157 16.26172,14.87891 2.51194,0.90833 3.28755,1.67707 2.81836,2.79297 -1.36235,3.24016 -1.5858,10.95955 -0.41992,14.49218 0.66922,2.02785 4.32261,7.53741 8.11718,12.24219 3.79457,4.70478 6.89844,8.96178 6.89844,9.46094 0,0.49916 -0.6915,2.56406 -1.53711,4.58789 -3.96618,9.4924 -2.41755,20.63225 3.28711,23.64258 2.60402,1.37414 2.79399,1.32477 3.58008,-0.95703 0.6228,-1.80779 0.31059,-3.07072 -1.25,-5.05469 -3.5069,-4.4583 -2.70116,-10.29193 2.5664,-18.57617 2.67819,-4.21196 2.74741,-4.24843 3.44336,-1.79883 0.39065,1.375 0.75575,4.87608 0.81055,7.78125 0.10061,5.33139 1.6844,10.08023 4.56055,13.67773 1.54715,1.93521 1.59315,1.93178 3.80273,-0.31054 l 2.23633,-2.26953 -2.25586,-1.85547 c -1.71467,-1.40931 -2.4109,-3.32768 -2.89844,-7.99219 -0.56417,-5.39764 -0.36731,-6.51021 1.63086,-9.21289 2.19465,-2.96842 2.21619,-3.19354 0.61524,-6.55078 -3.39648,-7.12249 -3.20485,-11.37315 0.91406,-20.15039 3.6789,-7.83961 3.74566,-8.19002 3.05859,-16.06641 L 285.86328,230 h 2.94531 c 4.59561,0 5.57281,1.93741 4.16016,8.24805 -1.63351,7.2993 0.0556,15.49645 4.08008,19.80468 l 2.92187,3.12891 3.76563,-2.25195 c 2.07038,-1.23775 4.15163,-2.5891 4.62695,-3.00391 0.47532,-0.4148 -0.76218,-3.38885 -2.75,-6.60937 C 302.36186,244.0487 302,242.75744 302,236.45312 c 0,-4.89927 -0.49849,-7.71899 -1.6543,-9.36914 -1.59109,-2.27161 -2.00549,-2.33765 -11.03711,-1.79882 l -9.38281,0.55859 -2.50976,-3.79297 c -1.38045,-2.08598 -4.31884,-5.2451 -6.5293,-7.02148 -5.6689,-4.55565 -4.03465,-4.98527 2.49023,-0.6543 6.23248,4.13689 10.14125,4.83307 9.12305,1.625 -0.56748,-1.78797 -0.17802,-2.00158 3.68164,-2.01367 7.05143,-0.0223 8.89417,-0.8307 8.19922,-3.59961 C 293.87135,208.35668 294.14977,208 296.24219,208 c 2.19851,0 8.61025,-1.75264 9.66797,-2.64258 0.22579,-0.18997 -0.35183,-1.18764 -1.28321,-2.2168 -1.61379,-1.78318 -1.53868,-1.93139 1.58985,-3.16992 5.76705,-2.28307 8.78905,-5.90306 5.0332,-6.02929 -1.60989,-0.0541 -1.60215,-0.15416 0.10938,-1.25 12.23348,-7.83275 12.20699,-7.79993 7.7207,-9.65821 l -2.91797,-1.20898 6.41797,-6.29297 c 5.97988,-5.8633 8.49498,-10.5412 4.93164,-9.17383 -0.97128,0.37271 -0.40815,-1.34383 1.62109,-4.93945 3.29789,-5.84361 3.30166,-7.25567 0.0176,-5.49805 -3.03467,1.6241 -3.16315,1.44686 -2.49609,-3.41992 0.33947,-2.475 0.34212,-4.5 0.006,-4.5 -0.33668,0 -3.09713,3.30203 -6.13477,7.33789 -9.09874,12.08877 -27.06252,25.12039 -36.34375,26.36523 -7.37483,0.98918 -11.56282,-1.48096 -7.80273,-4.60156 0.96634,-0.80199 2.16205,-0.84719 4,-0.14844 2.348,0.89271 2.62109,0.76173 2.62109,-1.25585 0,-1.23902 -0.66923,-3.20648 -1.48633,-4.37305 -1.32238,-1.88797 -1.31307,-2.18727 0.082,-2.72266 0.86208,-0.33082 2.66758,-0.60156 4.01172,-0.60156 2.40267,0 2.4166,-0.0508 0.86524,-3.05078 -0.86788,-1.6783 -2.22915,-3.30189 -3.02539,-3.60742 -2.61497,-1.00346 -1.51603,-3.16463 2.24023,-4.4043 l 3.68945,-1.2168 -2.74414,-2.35937 c -1.50889,-1.2979 -4.72243,-2.85935 -7.14258,-3.46875 -2.66688,-0.67153 -5.0059,-2.0304 -5.93554,-3.44922 -0.84362,-1.28753 -3.54885,-3.23087 -6.01172,-4.32031 -2.46286,-1.08944 -6.68625,-4.04825 -9.38672,-6.57422 -3.29741,-3.08434 -4.56598,-4.06648 -5.98437,-3.98828 z M 266.5,148 c 0.83333,0 1.5,0.88889 1.5,2 0,1.11111 -0.66667,2 -1.5,2 -0.83333,0 -1.5,-0.88889 -1.5,-2 0,-1.11111 0.66667,-2 1.5,-2 z m 15.67773,103.24219 c 0.10017,-0.0248 0.10657,0.055 0.002,0.25781 -0.56818,1.1 -3.53991,4.46059 -6.60547,7.4668 -3.06556,3.00621 -5.57422,5.93674 -5.57422,6.51367 0,0.57678 0.90126,2.73129 2.00195,4.78515 2.56534,4.78686 1.79638,4.80274 -1.44726,0.0293 -2.23796,-3.29346 -2.36261,-3.93125 -1.12305,-5.75 2.08153,-3.05411 11.7778,-13.06269 12.74609,-13.30273 z"
       transform="matrix(0.26458333,0,0,0.26458333,6.3500037,3.326194)"
       style="fill:#5e292c;stroke-width:0.999999"
       id="path913" />
    <path
       sodipodi:nodetypes="cccccssssscssssccssssccccscsscssssssscssssssssssssssssscssssssssssssscssscssssssssscsssssscssssssssssscsssssssssssscsssscsssssssscsssscsssssscscscsssssscssssssssscsssssccsssss"
       style="fill:#5e292c;stroke-width:0.264583"
       d="m 81.359377,96.916262 c -50.006249,-62.393379 -25.003124,-31.196689 0,0 z m -0.613243,1.13492 c -49.59742,-63.149992 -24.79871,-31.574996 0,0 z M 71.90031,93.887442 C 54.365884,83.407003 45.06538,68.108243 42.997839,46.344635 42.646308,42.644328 42.425151,31.901193 42.700505,31.901193 c 0.05642,0 0.860095,0.354462 1.785938,0.787693 7.504453,3.511571 18.753356,2.764655 25.628141,-1.701689 2.178216,-1.41512 3.820946,-3.065537 4.828907,-4.851506 l 0.790062,-1.399876 0.620623,1.339549 c 1.778045,3.837726 7.052185,7.130933 13.326498,8.321151 2.845334,0.53975 7.909713,0.537199 10.541416,-0.0053 1.12165,-0.231222 2.90257,-0.818788 3.9576,-1.3057 l 1.91823,-0.885299 -8e-4,5.869763 c -0.001,8.755858 -0.54026,13.775541 -2.24932,20.951011 -1.10256,4.62911 -2.31858,8.015523 -4.485589,12.491675 -2.779656,5.741622 -5.661387,9.801449 -10.074459,14.193053 -3.524401,3.507261 -9.200295,7.725259 -12.969012,9.637829 l -1.071996,0.54402 -3.346323,-2.000117 z m 5.827529,-2.2397 C 94.787431,81.029039 103.45208,63.871594 103.45208,40.709473 c 0,-4.291822 -0.0304,-4.577463 -0.46302,-4.34843 -1.9929,1.055101 -8.968683,1.523442 -12.766144,0.8571 -4.999532,-0.877274 -10.117621,-3.367794 -13.542477,-6.589924 l -0.974768,-0.917069 -1.472276,1.312219 c -2.92875,2.61035 -7.791863,4.869989 -12.788616,5.94221 -4.727845,1.014519 -11.664908,0.682025 -15.020237,-0.719923 -0.494567,-0.206642 -0.962567,-0.375714 -1.04,-0.375714 -0.241043,0 -0.154385,6.418548 0.134657,9.973609 1.701771,20.930842 10.275876,35.330046 26.940302,45.243068 1.542891,0.917805 2.959071,1.668737 3.147071,1.668737 0.187999,0 1.142568,-0.498427 2.121267,-1.107614 z M 76.663048,84.655757 C 75.15369,83.859274 74.743826,80.911633 75.793211,78.400102 76.016946,77.864631 76.2,77.318462 76.2,77.186393 c 0,-0.13207 -0.821436,-1.258605 -1.825416,-2.503411 -1.00398,-1.244806 -1.970293,-2.702266 -2.147366,-3.238799 -0.308472,-0.934683 -0.249219,-2.977433 0.111234,-3.834725 0.12414,-0.295248 -0.08109,-0.498613 -0.745707,-0.738941 -1.227296,-0.443797 -3.445113,-2.472754 -4.302935,-3.936516 -0.643985,-1.098878 -0.754176,-1.172157 -1.514557,-1.007226 -2.187043,0.474384 -2.804419,0.48307 -2.804419,0.03946 0,-0.315812 -0.245081,-0.431713 -0.912894,-0.431713 -0.509572,0 -1.006375,-0.164957 -1.124479,-0.373369 -0.116372,-0.205354 -0.628304,-0.483965 -1.137627,-0.619141 -0.717997,-0.190555 -0.912643,-0.369869 -0.866399,-0.798152 0.04855,-0.449654 -0.197474,-0.636546 -1.322916,-1.004946 -0.760408,-0.248909 -1.970728,-0.747226 -2.689601,-1.107369 -1.245298,-0.623869 -1.279681,-0.669448 -0.727792,-0.964811 l 0.579252,-0.310007 -0.727416,-0.432339 c -0.400082,-0.237789 -1.084606,-0.808035 -1.521169,-1.267214 -0.701648,-0.738002 -0.745114,-0.870969 -0.374594,-1.14595 0.380121,-0.282107 0.374589,-0.384464 -0.0594,-1.099127 -0.465269,-0.76617 -0.46429,-0.795684 0.03521,-1.063006 0.484184,-0.259127 0.453601,-0.345342 -0.531215,-1.497475 -0.574736,-0.672386 -1.168318,-1.546937 -1.319072,-1.943447 -0.262591,-0.690665 -0.244721,-0.713557 0.425643,-0.545306 0.552897,0.138769 0.66803,0.09299 0.548637,-0.218144 -0.587584,-1.531217 -0.730639,-2.647672 -0.431723,-3.369323 0.529325,-1.277903 0.547788,-1.260427 2.65739,2.515619 0.641189,1.147683 1.627727,2.612252 2.192311,3.254597 1.805244,2.053886 5.819391,4.459213 7.922961,4.74754 l 1.140994,0.15639 -0.327162,-2.212197 C 64.219826,51.020639 63.994743,49.827692 63.89958,49.586354 63.442777,48.427853 60.177739,48.25704 58.744523,49.316665 l -0.752782,0.556553 -0.42087,-0.642329 c -0.231478,-0.353282 -0.42087,-0.689789 -0.42087,-0.747797 0,-0.246507 3.167745,-1.50065 3.790373,-1.50065 1.869128,0 3.493196,0.590388 4.620408,1.679633 1.285658,1.242351 1.47596,1.15285 1.773955,-0.834332 0.223091,-1.487686 -0.421537,-2.827165 -1.549882,-3.220508 -1.121005,-0.390784 -2.607839,-0.332571 -3.265167,0.127839 -0.531749,0.372451 -0.605779,0.346659 -1.133935,-0.395068 -0.310777,-0.436446 -0.490961,-0.913411 -0.40041,-1.059926 0.09055,-0.146513 1.139878,-0.262731 2.331836,-0.25826 1.614107,0.0061 2.535801,0.157985 3.611515,0.595313 1.326496,0.539284 1.472512,0.684313 1.789903,1.777809 0.190072,0.654844 0.469533,1.964531 0.621028,2.910416 0.151495,0.945886 0.367924,1.812992 0.480959,1.926903 0.366332,0.369181 1.080074,-0.110964 1.509186,-1.015249 0.230418,-0.485571 0.99835,-1.424826 1.706515,-2.087229 l 1.287571,-1.204373 -0.626327,-0.675817 c -0.34448,-0.3717 -0.77026,-1.294728 -0.946179,-2.051172 -0.175919,-0.756446 -0.623343,-1.700725 -0.994275,-2.098399 -0.634569,-0.680315 -0.648303,-0.751909 -0.232415,-1.211458 0.243104,-0.268627 0.442007,-0.690346 0.442007,-0.937149 0,-0.246806 0.31228,-0.567465 0.693957,-0.712579 0.621395,-0.236254 0.829794,-0.136781 1.993046,0.951304 0.714499,0.66833 1.832244,1.450986 2.483876,1.739233 0.651634,0.288248 1.367417,0.802812 1.590625,1.143471 0.245967,0.375396 0.864454,0.734865 1.570066,0.91254 0.640329,0.161237 1.490872,0.574122 1.890101,0.917525 l 0.725869,0.624366 -0.975852,0.322062 c -0.993844,0.327996 -1.284692,0.899644 -0.592815,1.165143 0.210674,0.08084 0.570918,0.510299 0.800544,0.954349 0.410464,0.793745 0.406599,0.807363 -0.229108,0.807363 -0.355637,0 -0.833233,0.07161 -1.061325,0.159139 -0.369144,0.141655 -0.37152,0.220805 -0.02164,0.72033 0.216191,0.308655 0.393073,0.829408 0.393073,1.15723 0,0.53382 -0.0724,0.56851 -0.693643,0.332314 -0.48629,-0.184888 -0.802655,-0.173244 -1.058333,0.03895 -0.994857,0.825659 0.113483,1.479185 2.06474,1.217467 2.455658,-0.329372 7.208247,-3.777112 9.615622,-6.975599 0.803708,-1.067821 1.534167,-1.941494 1.623247,-1.941494 0.08908,0 0.08852,0.535782 -0.0013,1.190625 -0.176492,1.287669 -0.142433,1.334315 0.66049,0.904605 0.868929,-0.465037 0.867667,-0.09101 -0.0049,1.455111 -0.536903,0.951341 -0.685911,1.405265 -0.428926,1.306652 0.9428,-0.361785 0.277595,0.875814 -1.304581,2.427145 l -1.698358,1.66525 0.772316,0.319905 c 1.186997,0.49167 1.194059,0.482838 -2.042726,2.555251 -0.45284,0.289941 -0.455179,0.316415 -0.02923,0.330729 0.993735,0.0334 0.194254,0.991124 -1.331613,1.595186 -0.827755,0.327694 -0.84753,0.367139 -0.420548,0.838949 0.246428,0.272296 0.399169,0.536212 0.339429,0.586475 -0.279855,0.235463 -1.976348,0.699117 -2.558037,0.699117 -0.553619,0 -0.62703,0.09415 -0.492222,0.631264 0.183872,0.732607 -0.303732,0.946721 -2.169422,0.952624 -1.021202,0.0032 -1.124503,0.05971 -0.974357,0.532778 0.269398,0.848802 -0.764588,0.66462 -2.413598,-0.429932 -1.726375,-1.145902 -2.159051,-1.03233 -0.659154,0.173019 0.584851,0.470001 1.362199,1.306113 1.727441,1.858029 l 0.664075,1.003487 2.482892,-0.148132 c 2.389616,-0.142565 2.499328,-0.124669 2.920306,0.476361 0.305806,0.4366 0.437412,1.18236 0.437412,2.478635 0,1.668016 0.09599,2.009659 0.956263,3.403407 0.525944,0.852096 0.853365,1.639062 0.727604,1.748811 -0.125762,0.109752 -0.676849,0.46749 -1.224637,0.794978 l -0.995979,0.595431 -0.773309,-0.827831 c -1.064813,-1.139886 -1.511559,-3.308715 -1.079359,-5.23999 0.373763,-1.66969 0.115279,-2.182106 -1.100643,-2.182106 h -0.779537 l 0.185825,2.13025 c 0.181787,2.083961 0.164206,2.176317 -0.80917,4.250547 -1.089795,2.322311 -1.140915,3.447396 -0.242263,5.331888 0.423585,0.88827 0.418018,0.947592 -0.16265,1.732987 -0.528682,0.715084 -0.58076,1.009245 -0.43149,2.43737 0.128995,1.234152 0.313116,1.741967 0.766789,2.114846 l 0.597035,0.490707 -0.591839,0.600607 c -0.584618,0.593281 -0.596892,0.594283 -1.006242,0.08226 -0.760981,-0.951841 -1.179798,-2.208101 -1.206418,-3.618698 -0.0145,-0.768659 -0.11094,-1.695217 -0.214299,-2.059019 -0.184137,-0.648123 -0.202504,-0.63853 -0.911106,0.475885 -1.393709,2.191872 -1.606971,3.73534 -0.679103,4.914931 0.412906,0.524926 0.495511,0.858917 0.330729,1.337228 -0.207987,0.603727 -0.258236,0.617181 -0.947216,0.253606 z m 1.654132,-9.822002 c -0.291325,-0.54355 -0.52968,-1.113163 -0.52968,-1.265809 0,-0.152646 0.663623,-0.928317 1.474719,-1.72371 0.811096,-0.795393 1.597715,-1.684295 1.748046,-1.975337 0.295587,-0.572267 -2.765345,2.56 -3.373056,3.451661 -0.327967,0.481211 -0.29501,0.64996 0.297116,1.521355 0.858319,1.263128 1.0619,1.258789 0.382855,-0.0082 z M 77.258334,43.013692 c 0,-0.293981 -0.17639,-0.529167 -0.396875,-0.529167 -0.220486,0 -0.396875,0.235186 -0.396875,0.529167 0,0.293981 0.176389,0.529167 0.396875,0.529167 0.220485,0 0.396875,-0.235186 0.396875,-0.529167 z"
       id="path918" />
  </g>
</svg>
